<?xml version="1.0" encoding="UTF-8"?>
<!DOCTYPE svg PUBLIC "-//W3C//DTD SVG 1.1//EN" "http://www.w3.org/Graphics/SVG/1.1/DTD/svg11.dtd">
<svg version="1.1" xmlns="http://www.w3.org/2000/svg" xmlns:xlink="http://www.w3.org/1999/xlink" x="0" y="0" width="800" height="600" viewBox="0, 0, 800, 600">
  <g id="Layer_1">
    <path d="M0,-0 L800,-0 L800,600 L0,600 L0,-0 z" fill="#FFFFFF"/>
    <path d="M400,544.617 C264.902,544.617 155.383,435.098 155.383,300 C155.383,164.902 264.902,55.383 400,55.383 C535.098,55.383 644.617,164.902 644.617,300 C644.617,435.098 535.098,544.617 400,544.617 z" fill="#1F52E7"/>
    <path d="M190.438,175.187 L252.074,238.364 L229.731,288.443 L225.108,325.425 L175.029,364.718 L215.092,421.731 L234.354,478.744 L231.05,476.892 C182.294,429.899 156.237,367.524 155.383,300 C155.57,256.36 166.916,212.598 189.646,175.187 L190.438,175.187 z" fill="#29D55C"/>
    <path d="M370.666,223.625 L314.125,273.05 L333.308,329.016 L387.83,366.085 L396.917,404.607 L400.688,468.579 L452.605,485.219 L497.884,398.065 L503.942,285.406 L433.265,265.782 L420.14,223.625 L370.666,223.625" fill="#28D55C"/>
    <path d="M433.129,108.158 L441.604,145.14 L463.177,134.354 L433.129,108.158" fill="#28D55C"/>
    <path d="M549.467,114.322 L560.021,114.982 C600.498,150.319 628.786,197.99 639.568,250.691 L623.43,250.691 L616.496,219.873 L564.876,212.169 L569.964,239.888 L572.906,248.942 L550.362,254.878 L557.972,245.653 L548.513,227.745 L535.599,233.741 L477.045,238.364 L429.277,219.873 L423.113,184.433 L457.013,167.483 L473.193,145.14 L489.372,125.108 L528.665,134.354 L549.467,114.322 z" fill="#28D55C"/>
    <path d="M573.877,248.687 L572.962,249.112 L572.906,248.942 L573.877,248.687 z" fill="#28D55C"/>
  </g>
</svg>
